<svg width="790" height="530" viewBox="0 0 790 530" fill="none" xmlns="http://www.w3.org/2000/svg">
<g filter="url(#filter0_dd_1_8515)">
<g clip-path="url(#clip0_1_8515)">
<rect x="20" y="10" width="750" height="480" rx="20" fill="white"/>
<path d="M41 34.6938C38.6987 34.6938 36.8333 32.8284 36.8333 30.5271C36.8333 28.2259 38.6987 26.3605 41 26.3605C43.3012 26.3605 45.1666 28.2259 45.1666 30.5271C45.1666 32.8284 43.3012 34.6938 41 34.6938Z" fill="#E11D48"/>
<path d="M56 34.6938C53.6987 34.6938 51.8333 32.8284 51.8333 30.5271C51.8333 28.2259 53.6987 26.3605 56 26.3605C58.3012 26.3605 60.1666 28.2259 60.1666 30.5271C60.1666 32.8284 58.3012 34.6938 56 34.6938Z" fill="#FBBF24"/>
<path d="M71 34.6938C68.6987 34.6938 66.8333 32.8284 66.8333 30.5271C66.8333 28.2259 68.6987 26.3605 71 26.3605C73.3012 26.3605 75.1666 28.2259 75.1666 30.5271C75.1666 32.8284 73.3012 34.6938 71 34.6938Z" fill="#22C55E"/>
<g filter="url(#filter1_dd_1_8515)">
<rect x="20" y="51" width="750" height="439" fill="#DBEAFE" shape-rendering="crispEdges"/>
<path d="M20 51.5853H145.628V490H20V51.5853Z" fill="#BFDBFE"/>
<path d="M35.0754 93.144C35.0754 89.2647 38.4501 86.12 42.6131 86.12H123.015C127.178 86.12 130.553 89.2647 130.553 93.144V93.144C130.553 97.0232 127.178 100.168 123.015 100.168H42.6131C38.4501 100.168 35.0754 97.0232 35.0754 93.144V93.144Z" fill="#93C5FD"/>
<path d="M65.2261 142.312C65.2261 140.372 66.9135 138.8 68.995 138.8H131.809C133.891 138.8 135.578 140.372 135.578 142.312V142.312C135.578 144.252 133.891 145.824 131.809 145.824H68.995C66.9135 145.824 65.2261 144.252 65.2261 142.312V142.312Z" fill="white"/>
<path d="M65.2261 179.773C65.2261 177.834 66.9135 176.261 68.995 176.261H112.337C114.418 176.261 116.106 177.834 116.106 179.773V179.773C116.106 181.713 114.418 183.285 112.337 183.285H68.995C66.9135 183.285 65.2261 181.713 65.2261 179.773V179.773Z" fill="white"/>
<path d="M65.2261 217.235C65.2261 215.295 66.9135 213.723 68.995 213.723H123.015C125.097 213.723 126.784 215.295 126.784 217.235V217.235C126.784 219.174 125.097 220.747 123.015 220.747H68.995C66.9135 220.747 65.2261 219.174 65.2261 217.235V217.235Z" fill="white"/>
<path fill-rule="evenodd" clip-rule="evenodd" d="M45.1256 149.921C49.6355 149.921 53.2915 146.515 53.2915 142.312C53.2915 138.109 49.6355 134.703 45.1256 134.703C40.6158 134.703 36.9598 138.109 36.9598 142.312C36.9598 146.515 40.6158 149.921 45.1256 149.921ZM45.1256 151.677C50.6762 151.677 55.1759 147.484 55.1759 142.312C55.1759 137.14 50.6762 132.947 45.1256 132.947C39.575 132.947 35.0754 137.14 35.0754 142.312C35.0754 147.484 39.575 151.677 45.1256 151.677Z" fill="#93C5FD"/>
<path d="M185.829 93.144C185.829 90.5578 188.079 88.4613 190.854 88.4613H263.719C266.494 88.4613 268.744 90.5578 268.744 93.144V93.144C268.744 95.7301 266.494 97.8266 263.719 97.8266H190.854C188.079 97.8266 185.829 95.7301 185.829 93.144V93.144Z" fill="#BFDBFE"/>
<path fill-rule="evenodd" clip-rule="evenodd" d="M319.309 281.949C319.346 278.611 322.192 275.768 325.85 275.768C328.096 275.768 329.748 276.804 330.802 277.779C331.095 278.05 331.347 278.321 331.558 278.571C331.769 278.321 332.021 278.05 332.314 277.779C333.368 276.804 335.02 275.768 337.265 275.768C340.924 275.768 343.77 278.611 343.807 281.949L343.807 281.95C343.876 288.461 338.261 292.966 332.618 296.536C332.305 296.734 331.936 296.84 331.558 296.84C331.18 296.84 330.81 296.734 330.498 296.536C324.854 292.966 319.239 288.461 319.309 281.95L319.309 281.949ZM332.399 280.553C332.239 280.849 331.914 281.036 331.558 281.036C331.202 281.036 330.876 280.849 330.716 280.553C330.716 280.552 330.716 280.552 330.715 280.551C330.714 280.549 330.712 280.545 330.709 280.541C330.708 280.538 330.706 280.535 330.705 280.532C330.694 280.514 330.676 280.483 330.652 280.443C330.602 280.363 330.525 280.243 330.421 280.097C330.21 279.804 329.894 279.414 329.474 279.025C328.63 278.244 327.428 277.524 325.85 277.524C323.295 277.524 321.22 279.525 321.193 281.967M332.399 280.553C332.4 280.552 332.4 280.552 332.401 280.551C332.402 280.548 332.406 280.541 332.411 280.532C332.422 280.514 332.439 280.483 332.464 280.443C332.513 280.363 332.59 280.243 332.695 280.097C332.906 279.804 333.222 279.414 333.642 279.025C334.486 278.244 335.688 277.524 337.265 277.524C339.821 277.524 341.895 279.525 341.922 281.967C341.981 287.454 337.252 291.482 331.559 295.084L331.558 295.084L331.557 295.084C325.863 291.482 321.134 287.454 321.193 281.967" fill="white"/>
<path d="M185.829 286.304C185.829 283.718 188.079 281.621 190.854 281.621H224.774C227.549 281.621 229.799 283.718 229.799 286.304V286.304C229.799 288.89 227.549 290.987 224.774 290.987H190.854C188.079 290.987 185.829 288.89 185.829 286.304V286.304Z" fill="#BFDBFE"/>
<path d="M239.849 286.304C239.849 283.718 242.099 281.621 244.874 281.621H301.407C304.182 281.621 306.432 283.718 306.432 286.304V286.304C306.432 288.89 304.182 290.987 301.407 290.987H244.874C242.099 290.987 239.849 288.89 239.849 286.304V286.304Z" fill="#BFDBFE"/>
<path d="M185.829 331.96C185.829 330.02 187.517 328.448 189.598 328.448H242.362C244.443 328.448 246.131 330.02 246.131 331.96V331.96C246.131 333.9 244.443 335.472 242.362 335.472H189.598C187.517 335.472 185.829 333.9 185.829 331.96V331.96Z" fill="white"/>
<path d="M185.829 348.349C185.829 346.41 187.517 344.837 189.598 344.837H270.628C272.71 344.837 274.397 346.41 274.397 348.349V348.349C274.397 350.289 272.71 351.861 270.628 351.861H189.598C187.517 351.861 185.829 350.289 185.829 348.349V348.349Z" fill="white"/>
<path d="M256.181 331.96C256.181 330.02 257.868 328.448 259.95 328.448H322.764C324.845 328.448 326.533 330.02 326.533 331.96V331.96C326.533 333.9 324.845 335.472 322.764 335.472H259.95C257.868 335.472 256.181 333.9 256.181 331.96V331.96Z" fill="white"/>
<path d="M185.829 138.8C185.829 136.86 187.517 135.288 189.598 135.288H242.362C244.443 135.288 246.131 136.86 246.131 138.8V138.8C246.131 140.74 244.443 142.312 242.362 142.312H189.598C187.517 142.312 185.829 140.74 185.829 138.8V138.8Z" fill="white"/>
<path d="M185.829 155.189C185.829 153.25 187.517 151.677 189.598 151.677H319.623C321.705 151.677 323.392 153.25 323.392 155.189V155.189C323.392 157.129 321.705 158.701 319.623 158.701H189.598C187.517 158.701 185.829 157.129 185.829 155.189V155.189Z" fill="white"/>
<path d="M256.181 138.8C256.181 136.86 257.868 135.288 259.95 135.288H403.166C405.247 135.288 406.935 136.86 406.935 138.8V138.8C406.935 140.74 405.247 142.312 403.166 142.312H259.95C257.868 142.312 256.181 140.74 256.181 138.8V138.8Z" fill="white"/>
<path fill-rule="evenodd" clip-rule="evenodd" d="M53.9196 172.164H37.5879V187.383H53.9196V172.164ZM35.7035 170.408V189.139H55.804V170.408H35.7035Z" fill="#60A5FA"/>
<g clip-path="url(#clip1_1_8515)">
<rect x="455.302" y="93.144" width="125.628" height="160.381" rx="20" fill="white"/>
<path d="M538.986 253.664C538.986 294.248 503.972 327.148 460.781 327.148C417.589 327.148 382.576 294.248 382.576 253.664C382.576 213.08 417.589 180.18 460.781 180.18C503.972 180.18 538.986 213.08 538.986 253.664Z" fill="#FACC15"/>
<path fill-rule="evenodd" clip-rule="evenodd" d="M598.37 155.605L557.507 117.527L516.644 155.605L557.507 193.683L598.37 155.605ZM557.507 114.216L513.09 155.605L557.507 196.995L601.923 155.605L557.507 114.216Z" fill="#BFDBFE"/>
</g>
<path d="M45.7537 209.04L55.804 225.261H35.7035L45.7537 209.04Z" fill="#93C5FD"/>
<rect x="601.03" y="93.144" width="125.628" height="118.237" rx="20" fill="white"/>
<path fill-rule="evenodd" clip-rule="evenodd" d="M657.543 181.305C670.067 181.305 680.135 171.931 680.135 160.465C680.135 149 670.067 139.626 657.543 139.626C645.018 139.626 634.95 149 634.95 160.465C634.95 171.931 645.018 181.305 657.543 181.305ZM657.543 187.158C673.489 187.158 686.417 175.207 686.417 160.465C686.417 145.723 673.489 133.772 657.543 133.772C641.596 133.772 628.668 145.723 628.668 160.465C628.668 175.207 641.596 187.158 657.543 187.158Z" fill="#BFDBFE"/>
<path d="M670.666 152.016L678.972 123.127L701.667 144.275L670.666 152.016Z" fill="#FACC15"/>
<g clip-path="url(#clip2_1_8515)">
<rect x="455.302" y="272.256" width="125.628" height="179.112" rx="20" fill="white"/>
<path fill-rule="evenodd" clip-rule="evenodd" d="M573.078 474.196C608.289 474.196 636.834 447.597 636.834 414.785C636.834 381.973 608.289 355.373 573.078 355.373C537.866 355.373 509.322 381.973 509.322 414.785C509.322 447.597 537.866 474.196 573.078 474.196ZM573.078 480.049C611.759 480.049 643.116 450.829 643.116 414.785C643.116 378.74 611.759 349.52 573.078 349.52C534.397 349.52 503.04 378.74 503.04 414.785C503.04 450.829 534.397 480.049 573.078 480.049Z" fill="#FACC15"/>
<path d="M521.256 325.654C521.256 336.718 511.554 345.688 499.585 345.688C487.617 345.688 477.915 336.718 477.915 325.654C477.915 314.589 487.617 305.62 499.585 305.62C511.554 305.62 521.256 314.589 521.256 325.654Z" fill="#BFDBFE"/>
<path fill-rule="evenodd" clip-rule="evenodd" d="M499.585 343.932C510.527 343.932 519.372 335.735 519.372 325.654C519.372 315.572 510.527 307.376 499.585 307.376C488.643 307.376 479.799 315.572 479.799 325.654C479.799 335.735 488.643 343.932 499.585 343.932ZM499.585 345.688C511.554 345.688 521.256 336.718 521.256 325.654C521.256 314.589 511.554 305.62 499.585 305.62C487.617 305.62 477.915 314.589 477.915 325.654C477.915 336.718 487.617 345.688 499.585 345.688Z" fill="#BFDBFE"/>
</g>
<g clip-path="url(#clip3_1_8515)">
<rect x="601.03" y="230.112" width="125.628" height="200.184" rx="20" fill="white"/>
<path d="M755.553 374.397C755.553 388.782 743.179 400.444 727.915 400.444C712.65 400.444 700.276 388.782 700.276 374.397C700.276 360.011 712.65 348.349 727.915 348.349C743.179 348.349 755.553 360.011 755.553 374.397Z" fill="white"/>
<path fill-rule="evenodd" clip-rule="evenodd" d="M727.915 398.688C742.118 398.688 753.668 387.831 753.668 374.397C753.668 360.962 742.118 350.105 727.915 350.105C713.711 350.105 702.161 360.962 702.161 374.397C702.161 387.831 713.711 398.688 727.915 398.688ZM727.915 400.444C743.179 400.444 755.553 388.782 755.553 374.397C755.553 360.011 743.179 348.349 727.915 348.349C712.65 348.349 700.276 360.011 700.276 374.397C700.276 388.782 712.65 400.444 727.915 400.444Z" fill="#BFDBFE"/>
<path d="M705.301 300.645C705.301 319.879 688.709 335.472 668.241 335.472C647.773 335.472 631.181 319.879 631.181 300.645C631.181 281.41 647.773 265.817 668.241 265.817C688.709 265.817 705.301 281.41 705.301 300.645Z" fill="#BFDBFE"/>
<path d="M624.271 367.665L626.044 372.416L631.44 372.519L627.139 375.558L628.702 380.372L624.271 377.499L619.841 380.372L621.404 375.558L617.103 372.519L622.499 372.416L624.271 367.665Z" fill="#FACC15"/>
<path d="M650.025 367.665L651.797 372.416L657.194 372.519L652.893 375.558L654.456 380.372L650.025 377.499L645.595 380.372L647.158 375.558L642.856 372.519L648.253 372.416L650.025 367.665Z" fill="#FACC15"/>
<path d="M675.779 367.665L677.551 372.416L682.948 372.519L678.646 375.558L680.209 380.372L675.779 377.499L671.348 380.372L672.911 375.558L668.61 372.519L674.007 372.416L675.779 367.665Z" fill="#FACC15"/>
<path d="M701.533 367.665L703.305 372.416L708.701 372.519L704.4 375.558L705.963 380.372L701.533 377.499L697.102 380.372L698.665 375.558L694.364 372.519L699.76 372.416L701.533 367.665Z" fill="#FACC15"/>
<path d="M727.286 367.665L729.059 372.416L734.455 372.519L730.154 375.558L731.717 380.372L727.286 377.499L722.856 380.372L724.419 375.558L720.118 372.519L725.514 372.416L727.286 367.665Z" fill="#FACC15"/>
</g>
</g>
</g>
</g>
<defs>
<filter id="filter0_dd_1_8515" x="0" y="0" width="790" height="530" filterUnits="userSpaceOnUse" color-interpolation-filters="sRGB">
<feFlood flood-opacity="0" result="BackgroundImageFix"/>
<feColorMatrix in="SourceAlpha" type="matrix" values="0 0 0 0 0 0 0 0 0 0 0 0 0 0 0 0 0 0 127 0" result="hardAlpha"/>
<feOffset/>
<feGaussianBlur stdDeviation="5"/>
<feColorMatrix type="matrix" values="0 0 0 0 0 0 0 0 0 0 0 0 0 0 0 0 0 0 0.07 0"/>
<feBlend mode="normal" in2="BackgroundImageFix" result="effect1_dropShadow_1_8515"/>
<feColorMatrix in="SourceAlpha" type="matrix" values="0 0 0 0 0 0 0 0 0 0 0 0 0 0 0 0 0 0 127 0" result="hardAlpha"/>
<feMorphology radius="5" operator="erode" in="SourceAlpha" result="effect2_dropShadow_1_8515"/>
<feOffset dy="20"/>
<feGaussianBlur stdDeviation="12.5"/>
<feColorMatrix type="matrix" values="0 0 0 0 0 0 0 0 0 0 0 0 0 0 0 0 0 0 0.1 0"/>
<feBlend mode="normal" in2="effect1_dropShadow_1_8515" result="effect2_dropShadow_1_8515"/>
<feBlend mode="normal" in="SourceGraphic" in2="effect2_dropShadow_1_8515" result="shape"/>
</filter>
<filter id="filter1_dd_1_8515" x="-18" y="36" width="826" height="517" filterUnits="userSpaceOnUse" color-interpolation-filters="sRGB">
<feFlood flood-opacity="0" result="BackgroundImageFix"/>
<feColorMatrix in="SourceAlpha" type="matrix" values="0 0 0 0 0 0 0 0 0 0 0 0 0 0 0 0 0 0 127 0" result="hardAlpha"/>
<feOffset/>
<feGaussianBlur stdDeviation="7.5"/>
<feComposite in2="hardAlpha" operator="out"/>
<feColorMatrix type="matrix" values="0 0 0 0 0 0 0 0 0 0 0 0 0 0 0 0 0 0 0.07 0"/>
<feBlend mode="normal" in2="BackgroundImageFix" result="effect1_dropShadow_1_8515"/>
<feColorMatrix in="SourceAlpha" type="matrix" values="0 0 0 0 0 0 0 0 0 0 0 0 0 0 0 0 0 0 127 0" result="hardAlpha"/>
<feMorphology radius="12" operator="erode" in="SourceAlpha" result="effect2_dropShadow_1_8515"/>
<feOffset dy="25"/>
<feGaussianBlur stdDeviation="25"/>
<feColorMatrix type="matrix" values="0 0 0 0 0 0 0 0 0 0 0 0 0 0 0 0 0 0 0.25 0"/>
<feBlend mode="normal" in2="effect1_dropShadow_1_8515" result="effect2_dropShadow_1_8515"/>
<feBlend mode="normal" in="SourceGraphic" in2="effect2_dropShadow_1_8515" result="shape"/>
</filter>
<clipPath id="clip0_1_8515">
<rect x="20" y="10" width="750" height="480" rx="20" fill="white"/>
</clipPath>
<clipPath id="clip1_1_8515">
<rect x="455.302" y="93.144" width="125.628" height="160.381" rx="20" fill="white"/>
</clipPath>
<clipPath id="clip2_1_8515">
<rect x="455.302" y="272.256" width="125.628" height="179.112" rx="20" fill="white"/>
</clipPath>
<clipPath id="clip3_1_8515">
<rect x="601.03" y="230.112" width="125.628" height="200.184" rx="20" fill="white"/>
</clipPath>
</defs>
</svg>
